<?xml version="1.0" encoding="utf-8"?>
<!-- Generator: Adobe Illustrator 26.0.2, SVG Export Plug-In . SVG Version: 6.00 Build 0)  -->
<svg version="1.1" id="Layer_1" xmlns="http://www.w3.org/2000/svg" xmlns:xlink="http://www.w3.org/1999/xlink" x="0px" y="0px"
	 viewBox="0 0 250 250" style="enable-background:new 0 0 250 250;" xml:space="preserve">
<style type="text/css">
	.st0{fill-rule:evenodd;clip-rule:evenodd;fill:#26B8E4;}
	.st1{fill-rule:evenodd;clip-rule:evenodd;fill:#E8E8E8;}
	.st2{fill-rule:evenodd;clip-rule:evenodd;fill:#0D709D;}
	.st3{fill-rule:evenodd;clip-rule:evenodd;fill:#F68E34;}
	.st4{fill-rule:evenodd;clip-rule:evenodd;fill:#176884;}
	.st5{fill-rule:evenodd;clip-rule:evenodd;fill:#F7A269;}
	.st6{fill-rule:evenodd;clip-rule:evenodd;fill:#1285AD;}
	.st7{fill:#0D709D;}
</style>
<g>
	<g>
		<g>
			<path class="st0" d="M51.4,168.7v42.9h10.8c1.6,0,2.9,1,2.9,2.2v13.7h38.5v-13.7c0-1.2,1.3-2.2,2.9-2.2h10.8v-42.9h-10.8
				c-1.6,0-2.9-1-2.9-2.2v-13.8H65.2v13.8c0,1.2-1.3,2.2-2.9,2.2H51.4z"/>
		</g>
		<g>
			<path class="st0" d="M131,168.7v42.9h11.3c1.7,0,3.1,1,3.1,2.2v13.7h40.3v-13.7c0-1.2,1.4-2.2,3.1-2.2h11.3v-42.9h-11.3
				c-1.7,0-3.1-1-3.1-2.2v-13.8h-40.3v13.8c0,1.2-1.4,2.2-3.1,2.2H131z"/>
		</g>
		<g>
			<path class="st1" d="M20.4,75.7v62.2h209.1V75.7L125,15.3L20.4,75.7z"/>
		</g>
		<g>
			<path class="st2" d="M5.3,83.1c2.6,4.6,8.5,6.1,13.1,3.5l2.1-1.2L125,25l104.6,60.4l2.1,1.2c4.6,2.6,10.4,1.1,13.1-3.5
				c2.6-4.6,1.1-10.4-3.5-13.1L130.3,6c-1.5-0.9-3.4-1.3-5.3-1.3c-1.9,0-3.7,0.4-5.3,1.3L8.8,70C4.3,72.6,2.7,78.5,5.3,83.1
				L5.3,83.1z"/>
		</g>
		<g>
			<path class="st3" d="M190.1,161.3h32.1V219h-32.1V161.3z"/>
		</g>
		<g>
			<path class="st3" d="M108.9,161.3h32.1V219h-32.1L108.9,161.3z"/>
		</g>
		<g>
			<path class="st3" d="M27.8,161.3h32.1V219H27.8V161.3z"/>
		</g>
		<g>
			<path class="st2" d="M17.6,227.5l23.5,8.9l29-8.9v-13.7c0-1.2-1-2.2-2.2-2.2h-8H27.8h-8c-1.2,0-2.2,1-2.2,2.2L17.6,227.5z"/>
		</g>
		<g>
			<path class="st2" d="M179.9,227.5l28.4,8.9l24.2-8.9v-13.7c0-1.2-1-2.2-2.2-2.2h-8h-32.1h-8c-1.2,0-2.2,1-2.2,2.2V227.5z"/>
		</g>
		<g>
			<path class="st2" d="M98.7,227.5l26.3,6.4l26.3-6.4v-13.7c0-1.2-1-2.2-2.2-2.2h-8h-32.1h-8c-1.2,0-2.2,1-2.2,2.2L98.7,227.5z"/>
		</g>
		<g>
			<path class="st4" d="M6.3,245.4h237.5c1.2,0,2.2-1,2.2-2.2v-13.4c0-1.2-1-2.2-2.2-2.2h-11.3h-52.6h-28.6H98.7H70.1H17.6H6.3
				c-1.2,0-2.2,1-2.2,2.2v13.4C4,244.3,5,245.4,6.3,245.4z"/>
		</g>
		<g>
			<path class="st3" d="M113.9,58.3c0,6.5,5.2,11.7,11.7,11.7c6.4,0,11.7-5.2,11.7-11.7s-5.2-11.7-11.7-11.7
				C119.1,46.6,113.9,51.8,113.9,58.3L113.9,58.3z"/>
		</g>
		<g>
			<path class="st0" d="M125,25L20.4,85.4V99L125,38.6L229.6,99V85.4L125,25z"/>
		</g>
		<g>
			<path class="st5" d="M125.5,46.6c-6.5,0-11.7,5.2-11.7,11.7c0,1.3,0.2,2.6,0.6,3.8c1.7-4.3,5.9-7.3,10.8-7.3
				c5.1,0,9.5,3.3,11.1,7.9c0.6-1.4,0.9-2.8,0.9-4.4C137.2,51.8,132,46.6,125.5,46.6z"/>
		</g>
		<g>
			<path class="st5" d="M27.8,168.7h32.1v11.7H27.8V168.7z"/>
		</g>
		<g>
			<path class="st5" d="M108.9,168.7h32.1v11.7h-32.1L108.9,168.7z"/>
		</g>
		<g>
			<path class="st5" d="M190.1,168.7h32.1v11.7h-32.1V168.7z"/>
		</g>
		<g>
			<path class="st2" d="M27.8,168.7h32.1h8c1.2,0,2.2-1,2.2-2.2v-16.7H17.6v16.7c0,1.2,1,2.2,2.2,2.2H27.8z"/>
		</g>
		<g>
			<path class="st2" d="M108.9,168.7h32.1h8c1.2,0,2.2-1,2.2-2.2v-16.7H98.7v16.7c0,1.2,1,2.2,2.2,2.2H108.9z"/>
		</g>
		<g>
			<path class="st2" d="M182.1,168.7h8h32.1h8c1.2,0,2.2-1,2.2-2.2v-16.7h-52.6v16.7C179.9,167.7,180.9,168.7,182.1,168.7
				L182.1,168.7z"/>
		</g>
		<g>
			<path class="st6" d="M17.6,152.8h52.6v8.5H17.6L17.6,152.8z"/>
		</g>
		<g>
			<path class="st6" d="M98.7,152.8h52.6v8.5H98.7L98.7,152.8z"/>
		</g>
		<g>
			<path class="st6" d="M179.9,152.8h52.6v8.5h-52.6V152.8z"/>
		</g>
		<g>
			<path class="st4" d="M17.6,152.8h52.6h28.6h52.6h28.6h52.6h11.3c1.2,0,2.2-1,2.2-2.2v-13.4c0-1.2-1-2.2-2.2-2.2h-14.2H20.4H6.3
				c-1.2,0-2.2,1-2.2,2.2v13.4c0,1.2,1,2.2,2.2,2.2H17.6z"/>
		</g>
	</g>
	<g>
		<path class="st7" d="M81,100.3c1-1.6,1.6-3.4,1.6-5.4c0-5.6-4.6-10.2-10.2-10.2h-8.2c-2,0-3.7,1.6-3.7,3.7v13.1v0v15.3
			c0,1,0.4,1.9,1.1,2.6c0.7,0.7,1.6,1.1,2.6,1.1h0c0,0,7.6,0,9.7,0c6.2,0,11.3-5.1,11.3-11.3C85.1,105.5,83.5,102.4,81,100.3z
			 M72.4,92c1.6,0,2.9,1.3,2.9,2.9c0,1.6-1.3,2.9-2.9,2.9c-0.6,0-4.6,0-4.6,0V92L72.4,92z M73.8,113c-1.1,0-3.8,0-6,0v-8
			c0.5,0,6,0,6,0c2.2,0,4,1.8,4,4C77.8,111.2,76,113,73.8,113z"/>
		<path class="st7" d="M110.4,87.4C110.4,87.4,110.4,87.4,110.4,87.4c-0.7-1.7-2.3-2.8-4-2.8c0,0,0,0,0,0c-1.7,0-3.3,1-4,2.7
			c0,0,0,0.1,0,0.1l-10.6,28c-0.7,1.9,0.2,4,2.1,4.7c1.9,0.7,4-0.2,4.7-2.1l1.8-4.6h12.1l1.7,4.6c0.6,1.5,1.9,2.4,3.4,2.4
			c0.4,0,0.9-0.1,1.3-0.2c1.9-0.7,2.8-2.8,2.1-4.7L110.4,87.4z M103.1,106.1l3.3-8.6l3.2,8.6L103.1,106.1z"/>
		<path class="st7" d="M152.1,84.7C152.1,84.7,152.1,84.7,152.1,84.7c-2.1,0-3.7,1.7-3.7,3.7l0.2,16.9l-13.1-19
			c-0.9-1.3-2.6-1.9-4.1-1.4c-1.5,0.5-2.6,1.9-2.6,3.5v28.3c0,2,1.6,3.7,3.7,3.7s3.7-1.6,3.7-3.7v-16.6l12.5,18.1
			c1.1,1.5,2.9,2.2,4.5,1.7c1.7-0.5,2.8-2.2,2.8-4.1l-0.3-27.4C155.7,86.3,154.1,84.7,152.1,84.7L152.1,84.7z"/>
		<path class="st7" d="M189.2,114.1l-12.8-12.3L188.2,91c1.5-1.4,1.6-3.7,0.2-5.2c-1.4-1.5-3.7-1.6-5.2-0.2l-9.3,8.6V88
			c0-2-1.6-3.7-3.7-3.7c-2,0-3.7,1.6-3.7,3.7v28.7c0,2,1.6,3.7,3.7,3.7c2,0,3.7-1.6,3.7-3.7v-7.3l10.3,9.9c0.7,0.7,1.6,1,2.5,1
			c1,0,1.9-0.4,2.6-1.1C190.7,117.8,190.7,115.5,189.2,114.1L189.2,114.1z"/>
	</g>
</g>
</svg>
