<?xml version="1.0" encoding="utf-8"?>
<!-- Generator: Adobe Illustrator 26.0.2, SVG Export Plug-In . SVG Version: 6.00 Build 0)  -->
<svg version="1.1" id="Layer_1" xmlns="http://www.w3.org/2000/svg" xmlns:xlink="http://www.w3.org/1999/xlink" x="0px" y="0px"
	 viewBox="0 0 250 250" style="enable-background:new 0 0 250 250;" xml:space="preserve">
<style type="text/css">
	.st0{fill:#AABECE;}
	.st1{fill:#80D7E5;}
	.st2{fill:#F68E34;}
	.st3{fill:#0D709D;}
	.st4{fill:#085772;}
	.st5{fill:#CDEEF6;}
	.st6{fill:#CFDFE8;}
	.st7{fill:#26B8E4;}
</style>
<g id="flat">
	<path class="st0" d="M54.2,12.6h141.5v224.8H54.2V12.6z"/>
	<path class="st1" d="M70.9,12.6h108.2v74.9H70.9V12.6z"/>
	<path class="st2" d="M145.8,41.8h-12.5V29.3h-16.6v12.5h-12.5v16.6h12.5v12.5h16.6V58.4h12.5V41.8z"/>
	<path class="st2" d="M91.7,137.5h13.4v25H91.7V137.5z"/>
	<path class="st3" d="M105.1,137.5H146v25h-40.8V137.5z"/>
	<path class="st4" d="M118.2,137.5h13.4v25h-13.4V137.5z"/>
	<path class="st2" d="M144.8,137.5h13.4v25h-13.4V137.5z"/>
	<path class="st5" d="M91.7,162.5h66.6v58.3H91.7V162.5z"/>
	<path class="st4" d="M91.7,220.7h66.6v16.6H91.7V220.7z"/>
	<path class="st2" d="M120.8,162.5h8.3v58.3h-8.3V162.5z"/>
	<path class="st4" d="M112.5,187.4h25v8.3h-25V187.4z"/>
	<g>
		<path class="st3" d="M70.9,137.5h20.8v99.9H70.9V137.5z"/>
		<path class="st3" d="M158.3,137.5h16.6v99.9h-16.6V137.5z"/>
		<path class="st3" d="M70.9,104.2h104.1v16.6H70.9V104.2z"/>
	</g>
	<path class="st6" d="M4.3,79.2h49.9v158.2H4.3V79.2z"/>
	<path class="st3" d="M4.3,62.6h49.9v16.6H4.3V62.6z"/>
	<path class="st3" d="M4.3,220.7h49.9v16.6H4.3V220.7z"/>
	<path class="st6" d="M245.7,237.4h-49.9V79.2h49.9V237.4z"/>
	<path class="st3" d="M245.7,79.2h-49.9V62.6h49.9V79.2z"/>
	<path class="st3" d="M245.7,237.4h-49.9v-16.6h49.9V237.4z"/>
	<g>
		<path class="st7" d="M212.4,95.9h16.6v16.6h-16.6V95.9z"/>
		<path class="st7" d="M212.4,129.2h16.6v16.6h-16.6V129.2z"/>
		<path class="st7" d="M212.4,162.5h16.6v16.6h-16.6V162.5z"/>
		<path class="st7" d="M212.4,195.8h16.6v25h-16.6V195.8z"/>
		<path class="st7" d="M20.9,95.9h16.6v16.6H20.9V95.9z"/>
		<path class="st7" d="M20.9,129.2h16.6v16.6H20.9V129.2z"/>
		<path class="st7" d="M20.9,162.5h16.6v16.6H20.9V162.5z"/>
		<path class="st7" d="M20.9,195.8h16.6v25H20.9V195.8z"/>
	</g>
</g>
</svg>
