<?xml version="1.0" encoding="utf-8"?>
<!-- Generator: Adobe Illustrator 26.0.2, SVG Export Plug-In . SVG Version: 6.00 Build 0)  -->
<svg version="1.1" id="Layer_1" xmlns="http://www.w3.org/2000/svg" xmlns:xlink="http://www.w3.org/1999/xlink" x="0px" y="0px"
	 viewBox="0 0 250 250" style="enable-background:new 0 0 250 250;" xml:space="preserve">
<style type="text/css">
	.st0{fill:#1289B2;}
	.st1{fill:#F68E34;}
	.st2{fill:#0D709D;}
	.st3{fill:#26B8E4;}
	.st4{fill:#0A5975;}
</style>
<g>
	<rect x="4.3" y="82.8" class="st0" width="53.3" height="163"/>
	<rect x="192.4" y="82.8" class="st0" width="53.3" height="163"/>
</g>
<path class="st1" d="M4.3,85.8L4.3,85.8h241.4l0,0c0-6-5-11.1-11.1-11.1H15.4C9.3,74.7,4.3,79.7,4.3,85.8z"/>
<rect x="57.6" y="55.6" class="st2" width="134.8" height="190.1"/>
<path class="st1" d="M199.9,44.5H50.1c-3,0-5.5,2.5-5.5,5.5s2.5,5.5,5.5,5.5h149.9c3,0,5.5-2.5,5.5-5.5
	C205.5,47,203,44.5,199.9,44.5z"/>
<g>
	<rect x="19.4" y="97.8" class="st3" width="23.1" height="25.6"/>
	<rect x="19.4" y="133.5" class="st3" width="23.1" height="25.6"/>
	<rect x="19.4" y="169.3" class="st3" width="23.1" height="25.6"/>
	<rect x="19.4" y="205" class="st3" width="23.1" height="25.6"/>
	<rect x="207.5" y="97.8" class="st3" width="23.1" height="25.6"/>
	<rect x="207.5" y="133.5" class="st3" width="23.1" height="25.6"/>
	<rect x="207.5" y="169.3" class="st3" width="23.1" height="25.6"/>
	<rect x="207.5" y="205" class="st3" width="23.1" height="25.6"/>
</g>
<rect x="72.7" y="142.6" class="st3" width="25.1" height="25.6"/>
<rect x="97.8" y="182.8" class="st1" width="53.8" height="62.9"/>
<rect x="4.3" y="235.1" class="st4" width="241.4" height="10.6"/>
<g>
	<rect x="72.7" y="71.2" class="st3" width="25.1" height="25.6"/>
	<rect x="72.7" y="106.9" class="st3" width="25.1" height="25.6"/>
	<rect x="112.4" y="71.2" class="st1" width="25.1" height="25.6"/>
	<rect x="112.4" y="106.9" class="st1" width="25.1" height="25.6"/>
	<rect x="112.4" y="142.6" class="st1" width="25.1" height="25.6"/>
	<rect x="152.2" y="71.2" class="st3" width="25.1" height="25.6"/>
	<rect x="152.2" y="106.9" class="st3" width="25.1" height="25.6"/>
	<rect x="152.2" y="142.6" class="st3" width="25.1" height="25.6"/>
</g>
<g>
	<path class="st2" d="M73.7,4.8h6.5v29.7h-6.5V22.9H61.6v11.6h-6.5V4.8h6.5v12.6h12.1V4.8L73.7,4.8z"/>
	<path class="st2" d="M112.4,30.4c-3,3-6.5,4.5-11.1,4.5s-8-1.5-11.1-4.5c-3-3-4.5-6.5-4.5-11.1s1.5-8,4.5-11.1c3-2.5,6.5-4,11.1-4
		s8,1.5,11.1,4.5c3,3,4.5,6.5,4.5,11.1C117,23.9,115.4,27.9,112.4,30.4z M110.4,19.9c0-2.5-1-5-2.5-7c-1.5-2-4-3-6.5-3s-4.5,1-6.5,3
		c-1.5,2-2.5,4-2.5,7s1,5,2.5,6.5c2,2,4,3,6.5,3c2.5,0,4.5-1,6.5-3C109.9,24.4,110.4,22.4,110.4,19.9z"/>
	<path class="st2" d="M134.6,10.8V35H128V10.8h-8.5v-6h23.6v5.5h-8.5V10.8z"/>
	<path class="st2" d="M169.3,4.8v6h-15.1v6h13.6v5.5h-13.6v6h15.1v6h-22.1V4.8H169.3z"/>
	<path class="st2" d="M175.8,35V4.8h6.5v23.6h12.6v6h-19.1L175.8,35L175.8,35z"/>
</g>
</svg>
