<?xml version="1.0" encoding="utf-8"?>
<!-- Generator: Adobe Illustrator 26.0.2, SVG Export Plug-In . SVG Version: 6.00 Build 0)  -->
<svg version="1.1" id="Layer_1" xmlns="http://www.w3.org/2000/svg" xmlns:xlink="http://www.w3.org/1999/xlink" x="0px" y="0px"
	 viewBox="0 0 250 250" style="enable-background:new 0 0 250 250;" xml:space="preserve">
<style type="text/css">
	.st0{fill:#F68E34;}
	.st1{fill:#0D709D;}
	.st2{fill:#2B4D66;}
	.st3{fill:#0D6482;}
	.st4{fill:#26B8E4;}
	.st5{fill:#23ACCC;}
	.st6{fill:#E27320;}
	.st7{fill:#C3D5EF;}
	.st8{fill:#D8E2F1;}
</style>
<g>
	<g>
		<path class="st0" d="M40,135.4c-1.9,0-3.5-1.6-3.5-3.5V95.2c0-1.9,1.6-3.5,3.5-3.5s3.5,1.6,3.5,3.5v36.7
			C43.5,133.8,41.9,135.4,40,135.4z"/>
	</g>
	<path class="st1" d="M128.2,172.2h54.7v15.7h-54.7V172.2z"/>
	<path class="st2" d="M157.6,187.9h25.3v-15.7h-24L157.6,187.9z"/>
	<path class="st1" d="M128.2,240.6H17.4V115.1c0-0.6,0.6-1,1.2-0.8l109,42.2c0.3,0.1,0.6,0.5,0.6,0.8L128.2,240.6L128.2,240.6z"/>
	<path class="st3" d="M18.6,114.3c-0.6-0.2-1.2,0.2-1.2,0.8v10.1l91.9,35.6c5.2,2,8.7,7,8.7,12.6v67.2h10.2v-83.3
		c0-0.4-0.2-0.7-0.6-0.8L18.6,114.3z"/>
	<path class="st4" d="M108.6,166.4c0.6,0.2,1,0.8,1,1.4v21.7c0,0.8-0.7,1.5-1.5,1.5H37.6c-0.8,0-1.5-0.7-1.5-1.5v-46.5
		c0-0.5,0.2-1,0.6-1.2c0.4-0.3,0.9-0.4,1.4-0.2l22.9,8.1l23.7,8.4L108.6,166.4z"/>
	<path class="st5" d="M84.7,157.9L61,149.6l-22.9-8.1c-0.5-0.2-1-0.1-1.4,0.2c-0.4,0.3-0.6,0.7-0.6,1.2v5.8l14.8,5.2l23.7,8.4
		l20.2,7.1c2.8,1,4.7,3.7,4.7,6.7V191h8.6c0.8,0,1.5-0.7,1.5-1.5v-21.7c0-0.6-0.4-1.2-1-1.4L84.7,157.9z"/>
	<path class="st1" d="M208.8,206.5l-7.7,9.3h-27.7l-7.7-9.3l5.1-60.3l2.6-30.1l0.4-5.2l5-8.9c0.1-1.1,0.8-2,1.6-2h13.6
		c0.8,0,1.5,0.9,1.6,2l5,9.3l3,35l2.6,30.1L208.8,206.5z"/>
	<path class="st3" d="M206.2,176.4l-2.6-30.1L198.7,88c-0.1-1.1-1-2-2.2-2h-8.5c1.1,0,2.1,0.9,2.2,2l4.9,58.3l2.6,30.1l2.6,39.4
		l8.5-9.3L206.2,176.4z"/>
	<path class="st0" d="M201.1,116.1h-27.7l2.4-28.1c0.1-1.1,1-2,2.2-2h18.5c1.1,0,2.1,0.9,2.2,2L201.1,116.1z"/>
	<path class="st6" d="M190.3,88l2.4,28.1h8.5L198.7,88c-0.1-1.1-1-2-2.2-2h-8.5C189.2,85.9,190.2,86.8,190.3,88z"/>
	<path class="st0" d="M206.2,176.4h-37.9l2.6-30.1h32.8L206.2,176.4z"/>
	<path class="st6" d="M206.2,176.4l-2.6-30.1h-8.5l2.6,30.1H206.2z"/>
	<path class="st4" d="M96,240.6H49.6v-22c0-0.8,0.7-1.5,1.5-1.5h43.4c0.8,0,1.5,0.7,1.5,1.5L96,240.6L96,240.6z"/>
	<path class="st5" d="M86.2,217v23.6H96v-22c0-0.8-0.7-1.5-1.5-1.5L86.2,217z"/>
	<g>
		<path class="st1" d="M61,194.5c-1.9,0-3.5-1.6-3.5-3.5v-41.4c0-1.9,1.6-3.5,3.5-3.5s3.5,1.6,3.5,3.5V191
			C64.5,192.9,62.9,194.5,61,194.5z"/>
	</g>
	<g>
		<path class="st1" d="M84.7,194.5c-1.9,0-3.5-1.6-3.5-3.5v-33.1c0-1.9,1.6-3.5,3.5-3.5c1.9,0,3.5,1.6,3.5,3.5V191
			C88.1,192.9,86.6,194.5,84.7,194.5z"/>
	</g>
	<g>
		<path class="st7" d="M191,77.8c-1.9,0-3.5-1.6-3.5-3.5v-5.1c0-6.8,5.5-12.3,12.3-12.3c5.1,0,9.2-4.1,9.2-9.2v-4.9
			c0-5.1-4.1-9.2-9.2-9.2h-12.1c-6.9,0-12.4-5.6-12.4-12.4V9.4c0-1.9,1.6-3.5,3.5-3.5s3.5,1.6,3.5,3.5v11.7c0,3,2.4,5.4,5.5,5.4
			h12.1c8.9,0,16.2,7.3,16.2,16.2v4.9c0,8.9-7.3,16.2-16.2,16.2c-2.9,0-5.3,2.4-5.3,5.3v5.1C194.5,76.3,192.9,77.8,191,77.8
			L191,77.8z"/>
	</g>
	<g>
		<path class="st7" d="M177.7,74.5c-1.9,0-3.5-1.6-3.5-3.5v-5.7c0-2.4-1.9-4.3-4.3-4.3c-6.2,0-11.3-5.1-11.3-11.3v-7.6
			c0-1.9,1.6-3.5,3.5-3.5s3.5,1.6,3.5,3.5v7.6c0,2.4,1.9,4.3,4.3,4.3c6.2,0,11.3,5.1,11.3,11.3V71C181.1,72.9,179.6,74.5,177.7,74.5
			z"/>
	</g>
	<g>
		<path class="st7" d="M195.7,19.6c-1.9,0-3.5-1.6-3.5-3.5V9.5c0-1.9,1.6-3.5,3.5-3.5s3.5,1.6,3.5,3.5v6.6
			C199.1,18,197.6,19.6,195.7,19.6z"/>
	</g>
	<path class="st4" d="M232.6,240.6H128.2v-34.1h97.7c3.7,0,6.7,3,6.7,6.7V240.6z"/>
	<path class="st8" d="M225.9,206.5h-10.2c3.7,0,6.7,3,6.7,6.7v27.4h10.2v-27.4C232.6,209.5,229.6,206.5,225.9,206.5z"/>
	<g>
		<g>
			<path class="st0" d="M147.7,226.6c-1.9,0-3.5-1.6-3.5-3.5v-3.3c0-1.9,1.6-3.5,3.5-3.5s3.5,1.6,3.5,3.5v3.3
				C151.2,225,149.6,226.6,147.7,226.6z"/>
		</g>
		<g>
			<path class="st0" d="M169.5,226.6c-1.9,0-3.5-1.6-3.5-3.5v-3.3c0-1.9,1.6-3.5,3.5-3.5s3.5,1.6,3.5,3.5v3.3
				C173,225,171.4,226.6,169.5,226.6z"/>
		</g>
		<g>
			<path class="st0" d="M191.3,226.6c-1.9,0-3.5-1.6-3.5-3.5v-3.3c0-1.9,1.6-3.5,3.5-3.5s3.5,1.6,3.5,3.5v3.3
				C194.7,225,193.2,226.6,191.3,226.6z"/>
		</g>
		<g>
			<path class="st0" d="M213,226.6c-1.9,0-3.5-1.6-3.5-3.5v-3.3c0-1.9,1.6-3.5,3.5-3.5s3.5,1.6,3.5,3.5v3.3
				C216.5,225,215,226.6,213,226.6z"/>
		</g>
	</g>
	<g>
		<path class="st0" d="M240.6,244.1H9.4c-1.9,0-3.5-1.6-3.5-3.5s1.6-3.5,3.5-3.5h231.1c1.9,0,3.5,1.6,3.5,3.5
			S242.5,244.1,240.6,244.1z"/>
	</g>
</g>
</svg>
