<?xml version="1.0" encoding="utf-8"?>
<!-- Generator: Adobe Illustrator 26.0.2, SVG Export Plug-In . SVG Version: 6.00 Build 0)  -->
<svg version="1.1" id="Layer_1" xmlns="http://www.w3.org/2000/svg" xmlns:xlink="http://www.w3.org/1999/xlink" x="0px" y="0px"
	 viewBox="0 0 250 250" style="enable-background:new 0 0 250 250;" xml:space="preserve">
<style type="text/css">
	.st0{fill:#26B8E4;}
	.st1{fill:#F68E34;}
	.st2{fill:#0D709D;}
	.st3{fill:#084251;}
	.st4{fill:#0A5E7C;}
	.st5{fill:#F7DFA1;}
</style>
<path class="st0" d="M245.7,6.3v40.9H73.9c-4.5,0-8.2,3.7-8.2,8.2c0,0,0,0,0,0v53.2H24.8V59.5c0-1.4,0.1-2.7,0.2-4.1
	c0.2-2.8,0.6-5.5,1.3-8.2c2.4-10.2,7.8-19.4,15.4-26.6c2-1.9,4.1-3.6,6.4-5.1c7.7-5.2,16.6-8.4,25.9-9.1c1.4-0.1,2.7-0.2,4.1-0.2
	H245.7z"/>
<path class="st1" d="M4.3,108.6h85.9v135H4.3V108.6z"/>
<path class="st2" d="M20.7,125h53.2v45H20.7V125z"/>
<path class="st2" d="M20.7,182.3h53.2v45H20.7V182.3z"/>
<path class="st0" d="M32.9,149.6h8.2v8.2h-8.2V149.6z"/>
<path class="st0" d="M49.3,149.6h16.4v8.2H49.3V149.6z"/>
<path class="st0" d="M41.1,137.3h24.6v8.2H41.1V137.3z"/>
<path class="st0" d="M73.9,206.8H61.6v-8.2c0-2.3-1.8-4.1-4.1-4.1h-4.1v-12.3h-8.2v16.4c0,2.3,1.8,4.1,4.1,4.1h4.1v24.6h8.2V215
	h12.3V206.8z"/>
<path class="st0" d="M37,182.3h-8.2v28.6c0,2.3,1.8,4.1,4.1,4.1h16.4v-8.2H37V182.3z"/>
<g>
	<path class="st2" d="M24.8,75.9h40.9v8.2H24.8V75.9z"/>
	<path class="st2" d="M188.4,6.3h8.2v40.9h-8.2V6.3z"/>
	<path class="st2" d="M217.1,6.3h8.2v40.9h-8.2V6.3z"/>
	<path class="st2" d="M131.1,6.3h8.2v40.9h-8.2V6.3z"/>
	<path class="st2" d="M159.8,6.3h8.2v40.9h-8.2V6.3z"/>
	<path class="st2" d="M82,6.3v40.9h-8.2c-4.5,0-8.2,3.7-8.2,8.2c0,0,0,0,0,0H24.9c0.2-2.8,0.6-5.5,1.3-8.2h38.2L41.6,20.7
		c2-1.9,4.1-3.6,6.4-5.1l25.9,30.2V6.5c1.4-0.1,2.7-0.2,4.1-0.2L82,6.3z"/>
	<path class="st2" d="M102.5,6.3h8.2v40.9h-8.2V6.3z"/>
</g>
<path class="st2" d="M188.4,145.5v20.5h-8.2l-4.1-12.3h-16.4l-4.1,12.3h-8.2v-20.5l16.4-10.9l4.1-2.7l4.1,2.7L188.4,145.5z"/>
<path class="st3" d="M172.1,134.5v19.1h-8.2v-19.1l4.1-2.7L172.1,134.5z"/>
<path class="st2" d="M163.9,129.1L143,108.2l-20,25h-8.2v-12.3l16.4-20.5h24.6l16.4,16.4v12.3H163.9z"/>
<path class="st2" d="M131.1,149.6v45H90.2l2.2-8.2l10-36.8l12.3-12.3h4.1L131.1,149.6z"/>
<path class="st2" d="M90.2,194.6h45v49.1h-45V194.6z"/>
<circle class="st4" cx="168" cy="133.2" r="8.2"/>
<circle class="st4" cx="118.9" cy="137.3" r="8.2"/>
<circle class="st4" cx="143.4" cy="104.5" r="8.2"/>
<path class="st1" d="M114.8,223.2h8.2v8.2h-8.2V223.2z"/>
<path class="st1" d="M102.5,223.2h8.2v8.2h-8.2V223.2z"/>
<path class="st2" d="M135.2,194.6h110.5v16.4H135.2V194.6z"/>
<path class="st0" d="M208.9,210.9l8.2,12.3h12.3l8.2-12.3H208.9z"/>
<path class="st2" d="M217.1,223.2h12.3v20.5h-12.3V223.2z"/>
<path class="st1" d="M151.6,165.9h32.7v28.6h-32.7V165.9z"/>
<path class="st1" d="M200.7,165.9h32.7v28.6h-32.7V165.9z"/>
<path class="st5" d="M163.9,165.9h8.2v12.3h-8.2V165.9z"/>
<path class="st5" d="M213,165.9h8.2v12.3H213V165.9z"/>
<path class="st1" d="M152.1,87.7c-4.8-4.8-12.6-4.8-17.4,0c0,0,0,0,0,0l-5.8-5.8c8-8,20.9-8,28.9,0c0,0,0,0,0,0L152.1,87.7z"/>
<path class="st1" d="M160.8,79c-9.6-9.6-25.1-9.6-34.7,0l-5.8-5.8c12.8-12.8,33.5-12.8,46.3,0L160.8,79z"/>
<path class="st0" d="M176.1,210.9l8.2,12.3h12.3l8.2-12.3H176.1z"/>
<path class="st2" d="M184.3,223.2h12.3v20.5h-12.3V223.2z"/>
<path class="st0" d="M143.4,210.9l8.2,12.3h12.3l8.2-12.3H143.4z"/>
<path class="st2" d="M151.6,223.2h12.3v20.5h-12.3V223.2z"/>
<path class="st4" d="M135.2,194.6h8.2v16.4h-8.2V194.6z"/>
<path class="st4" d="M131.1,186.4v8.2H90.2l2.2-8.2H131.1z"/>
</svg>
