<?xml version="1.0" encoding="utf-8"?>
<!-- Generator: Adobe Illustrator 26.0.2, SVG Export Plug-In . SVG Version: 6.00 Build 0)  -->
<svg version="1.1" id="Layer_1" xmlns="http://www.w3.org/2000/svg" xmlns:xlink="http://www.w3.org/1999/xlink" x="0px" y="0px"
	 viewBox="0 0 250 250" style="enable-background:new 0 0 250 250;" xml:space="preserve">
<style type="text/css">
	.st0{fill:#0D709D;}
	.st1{fill:#26B8E4;}
	.st2{fill:#F68E34;}
	.st3{fill:#6CC4D8;}
	.st4{fill:#D37631;}
	.st5{fill:#FFFFFF;}
</style>
<path class="st0" d="M186.3,4.4c-2.3,0-4.1,1.8-4.1,4.1v81.8c0,2.3,1.8,4.1,4.1,4.1s4.1-1.8,4.1-4.1V57.5h8.1c4.5,0,8.2-3.7,8.2-8.2
	C206.7,5.6,188.4,4.4,186.3,4.4z"/>
<path class="st0" d="M67.8,4.4c-2.3,0-4.1,1.8-4.1,4.1v16.4h-8.2V8.5c0-2.3-1.8-4.1-4.1-4.1s-4.1,1.8-4.1,4.1v16.4h-8.2V8.5
	c0-2.3-1.8-4.1-4.1-4.1s-4.1,1.8-4.1,4.1V33c0,9.7,6.8,18.1,16.4,20v37.2c0,2.3,1.8,4.1,4.1,4.1s4.1-1.8,4.1-4.1V53
	c9.5-2,16.3-10.3,16.4-20V8.5C71.8,6.2,70,4.4,67.8,4.4z"/>
<path class="st1" d="M149.5,208.8h90V98.4c0-4.5-3.7-8.2-8.2-8.2H18.7c-4.5,0-8.2,3.7-8.2,8.2v110.4h90"/>
<path class="st0" d="M149.5,208.8h90c2.3,0,4.1,1.8,4.1,4.1v28.6c0,2.3-1.8,4.1-4.1,4.1h-229c-2.3,0-4.1-1.8-4.1-4.1v-28.6
	c0-2.3,1.8-4.1,4.1-4.1h90"/>
<path class="st2" d="M100.5,200.7h49.1v45h-49.1V200.7z"/>
<path class="st3" d="M149.5,159.8v40.9h-49.1v-40.9c0-2.3,1.8-4.1,4.1-4.1h40.9C147.7,155.7,149.5,157.5,149.5,159.8z"/>
<path class="st0" d="M30.9,135.2H80c2.3,0,4.1,1.8,4.1,4.1v49.1c0,2.3-1.8,4.1-4.1,4.1H30.9c-2.3,0-4.1-1.8-4.1-4.1v-49.1
	C26.9,137.1,28.7,135.2,30.9,135.2z"/>
<path class="st3" d="M35,139.3h40.9c2.3,0,4.1,1.8,4.1,4.1v40.9c0,2.3-1.8,4.1-4.1,4.1H35c-2.3,0-4.1-1.8-4.1-4.1v-40.9
	C30.9,141.1,32.8,139.3,35,139.3z"/>
<path class="st0" d="M170,135.2h49.1c2.3,0,4.1,1.8,4.1,4.1v49.1c0,2.3-1.8,4.1-4.1,4.1H170c-2.3,0-4.1-1.8-4.1-4.1v-49.1
	C165.9,137.1,167.7,135.2,170,135.2z"/>
<path class="st3" d="M174.1,139.3H215c2.3,0,4.1,1.8,4.1,4.1v40.9c0,2.3-1.8,4.1-4.1,4.1h-40.9c-2.3,0-4.1-1.8-4.1-4.1v-40.9
	C170,141.1,171.8,139.3,174.1,139.3z"/>
<path class="st0" d="M185.1,115.5c1.6,2.8,1.8,6.1,0.4,9.1c-1.3,2.9-4.1,5.2-7.4,6.1c-1.1,0.3-2.2,0.4-3.3,0.4
	c-3.3,0-6.4-1.1-8.8-3.2c-2.3-2.1-3.7-4.9-3.7-7.9c-0.1,6.2-5.6,11.2-12.4,11.2c-6.8,0-12.4-5-12.4-11.2
	c-0.1,6.2-5.6,11.1-12.4,11.1c-6.8,0-12.3-5-12.4-11.1c-0.1,6.2-5.6,11.2-12.4,11.2c-6.8,0-12.4-5-12.4-11.2c0,3-1.3,5.8-3.7,7.9
	c-2.3,2.1-5.5,3.3-8.8,3.2c-1.1,0-2.2-0.1-3.3-0.4c-3.3-0.9-6.1-3.2-7.4-6.1c-1.3-2.9-1.2-6.3,0.4-9.1c5-9.2,20-25.3,60.1-25.3
	S180,106.3,185.1,115.5z"/>
<path class="st4" d="M133.2,225.2c-2.3,0-4.1-1.8-4.1-4.1V217c0-2.3,1.8-4.1,4.1-4.1s4.1,1.8,4.1,4.1v4.1
	C137.3,223.4,135.4,225.2,133.2,225.2z"/>
<g>
	<path class="st5" d="M182.3,163.8c-1.7,0-3.1-1-3.8-2.5c-0.6-1.5-0.3-3.3,0.9-4.5l8.2-8.2c1.6-1.5,4.2-1.5,5.7,0.1
		c1.6,1.6,1.6,4.1,0,5.7l-8.2,8.2C184.4,163.4,183.3,163.8,182.3,163.8z"/>
	<path class="st5" d="M190.4,180.2c-1.7,0-3.1-1-3.8-2.5c-0.6-1.5-0.3-3.3,0.9-4.5l16.4-16.4c1.6-1.5,4.2-1.5,5.7,0
		c1.6,1.6,1.6,4.1,0,5.7L193.3,179C192.6,179.8,191.5,180.2,190.4,180.2z"/>
	<path class="st5" d="M43.2,163.8c-1.7,0-3.1-1-3.8-2.5c-0.6-1.5-0.3-3.3,0.9-4.5l8.2-8.2c1.6-1.5,4.2-1.5,5.7,0.1
		c1.6,1.6,1.6,4.1,0,5.7l-8.2,8.2C45.3,163.4,44.3,163.8,43.2,163.8z"/>
	<path class="st5" d="M51.4,180.2c-1.7,0-3.1-1-3.8-2.5c-0.6-1.5-0.3-3.3,0.9-4.5l16.4-16.4c1.6-1.5,4.2-1.5,5.7,0
		c1.6,1.6,1.6,4.1,0,5.7L54.3,179C53.5,179.8,52.5,180.2,51.4,180.2z"/>
	<path class="st5" d="M143.1,155.7L119.7,179c-1.6,1.6-4.2,1.6-5.8,0c-1.6-1.6-1.6-4.2,0-5.8l17.5-17.5H143.1z"/>
	<path class="st5" d="M136.1,187.2l-13.5,13.5H111l19.3-19.3c1.6-1.6,4.2-1.6,5.8,0C137.7,183,137.7,185.6,136.1,187.2z"/>
</g>
<path class="st2" d="M165.9,47.5c0,22.6-18.3,40.9-40.9,40.9c-22.6,0-40.9-18.3-40.9-40.9S102.4,6.6,125,6.6
	C147.6,6.6,165.9,24.9,165.9,47.5z"/>
<path class="st4" d="M125,76.1c-15.8,0-28.6-12.8-28.6-28.6c0-15.8,12.8-28.6,28.6-28.6c2.3,0,4.1,1.8,4.1,4.1S127.3,27,125,27
	c-9.7,0-18,6.7-20,16.2c-2,9.4,2.8,19,11.7,23c8.8,3.9,19.2,1.2,24.9-6.6c5.7-7.8,5.2-18.5-1.3-25.7c-1-1.1-1.4-2.6-0.9-4
	c0.4-1.4,1.6-2.5,3.1-2.8c1.5-0.3,3,0.2,3.9,1.4c7.5,8.4,9.4,20.5,4.8,30.8C146.5,69.5,136.3,76.1,125,76.1z"/>
</svg>
