<?xml version="1.0" encoding="utf-8"?>
<!-- Generator: Adobe Illustrator 26.0.2, SVG Export Plug-In . SVG Version: 6.00 Build 0)  -->
<svg version="1.1" id="Layer_1" xmlns="http://www.w3.org/2000/svg" xmlns:xlink="http://www.w3.org/1999/xlink" x="0px" y="0px"
	 viewBox="0 0 250 250" style="enable-background:new 0 0 250 250;" xml:space="preserve">
<style type="text/css">
	.st0{fill:#0D709D;}
	.st1{fill:#0A617F;}
	.st2{fill:#F68E34;}
	.st3{fill:#D67127;}
	.st4{fill:#C8E7F7;}
	.st5{fill:#8CBCD6;}
	.st6{fill:#26B8E4;}
</style>
<path class="st0" d="M17.4,68.7v160.4c0,1.1,0.9,1.9,1.9,1.9h211.4c1.1,0,1.9-0.9,1.9-1.9V68.7H17.4z"/>
<g>
	<path class="st1" d="M117.2,134.6H17.4v-10.9h215.3v10.9H117.2"/>
	<path class="st1" d="M17.4,68.7h215.3v10.9H17.4V68.7z"/>
	<path class="st1" d="M86.8,68.7v11c0,7.7,6.3,14,14,14h59.1c10,0,18.1-8.1,18.1-18.1v-6.9H86.8z"/>
	<path class="st1" d="M221.3,68.7v160.4c0,1.1-0.9,1.9-1.9,1.9h11.4c1.1,0,1.9-0.9,1.9-1.9V68.7H221.3z"/>
</g>
<path class="st2" d="M99.3,158.9v72.2h51.5v-72.2c0-2.7-2.2-4.8-4.8-4.8h-41.8C101.4,154.1,99.3,156.2,99.3,158.9z"/>
<path class="st3" d="M106.6,166.3c0-2.7,2.2-4.8,4.8-4.8h39.3v-2.5c0-2.7-2.2-4.8-4.8-4.8h-41.8c-2.7,0-4.8,2.2-4.8,4.8v72.2h7.4
	V166.3z"/>
<path class="st4" d="M5.3,102.1v19.7c0,1.1,0.9,1.9,1.9,1.9h235.5c1.1,0,1.9-0.9,1.9-1.9v-19.7c0-1.1-0.9-1.9-1.9-1.9H7.2
	C6.2,100.2,5.3,101,5.3,102.1z"/>
<path class="st5" d="M242.8,100.2h-11.3c1.1,0,1.9,0.9,1.9,1.9v19.7c0,1.1-0.9,1.9-1.9,1.9h11.3c1.1,0,1.9-0.9,1.9-1.9v-19.7
	C244.7,101,243.8,100.2,242.8,100.2z"/>
<path class="st6" d="M166.5,165.9v39.5c0,2.3,1.8,4.1,4.1,4.1h44.8c2.3,0,4.1-1.8,4.1-4.1v-39.5c0-2.3-1.8-4.1-4.1-4.1h-44.8
	C168.4,161.8,166.5,163.6,166.5,165.9z"/>
<path class="st6" d="M30.5,165.9v39.5c0,2.3,1.8,4.1,4.1,4.1h44.8c2.3,0,4.1-1.8,4.1-4.1v-39.5c0-2.3-1.8-4.1-4.1-4.1H34.6
	C32.3,161.8,30.5,163.6,30.5,165.9z"/>
<path class="st4" d="M245,58.1v-8.9H5v8.9c5.9,0,10.6,4.8,10.6,10.6h218.7C234.4,62.8,239.1,58.1,245,58.1z"/>
<path class="st5" d="M86.8,49.2H178v19.5H86.8V49.2z"/>
<path class="st5" d="M233.7,49.2v8.9c-5.9,0-10.6,4.8-10.6,10.6h11.3c0-5.9,4.8-10.6,10.6-10.6v-8.9H233.7z"/>
<path class="st2" d="M79.4,32.9v39.5c0,7.7,6.3,14,14,14h63.2c7.7,0,14-6.3,14-14V32.9c0-7.7-6.3-14-14-14H93.4
	C85.7,18.9,79.4,25.2,79.4,32.9z"/>
<path class="st0" d="M111,196.1h-2.9c-1.9,0-3.5-1.6-3.5-3.5s1.6-3.5,3.5-3.5h2.9c1.9,0,3.5,1.6,3.5,3.5S112.9,196.1,111,196.1z"/>
<path class="st1" d="M138.5,66H117c-4.3,0-8-3-8.9-7.2l-4.6-21.9h-4.5c-1.9,0-3.5-1.6-3.5-3.5s1.6-3.5,3.5-3.5h4.5
	c3.3,0,6.2,2.4,6.9,5.6l4.6,21.9c0.2,0.9,1,1.6,2,1.6h21.5c0.8,0,1.6-0.5,1.9-1.3l6.4-17h-28.5c-1.9,0-3.5-1.6-3.5-3.5
	s1.6-3.5,3.5-3.5h30.4c1.9,0,3.6,0.9,4.7,2.5s1.3,3.5,0.6,5.3L147,60.1C145.7,63.6,142.3,66,138.5,66z"/>
<path class="st1" d="M117.6,76.2h-1c-1.9,0-3.5-1.6-3.5-3.5c0-1.9,1.6-3.5,3.5-3.5h1c1.9,0,3.5,1.6,3.5,3.5
	C121.2,74.7,119.6,76.2,117.6,76.2z"/>
<path class="st1" d="M133.3,76.2h-1c-1.9,0-3.5-1.6-3.5-3.5c0-1.9,1.6-3.5,3.5-3.5h1c1.9,0,3.5,1.6,3.5,3.5
	C136.8,74.7,135.3,76.2,133.3,76.2z"/>
</svg>
