<?xml version="1.0" encoding="utf-8"?>
<!-- Generator: Adobe Illustrator 26.0.2, SVG Export Plug-In . SVG Version: 6.00 Build 0)  -->
<svg version="1.1" id="Layer_1" xmlns="http://www.w3.org/2000/svg" xmlns:xlink="http://www.w3.org/1999/xlink" x="0px" y="0px"
	 viewBox="0 0 250 250" style="enable-background:new 0 0 250 250;" xml:space="preserve">
<style type="text/css">
	.st0{fill:#C1C8D1;}
	.st1{fill:#0D709D;}
	.st2{fill:#E7E4DD;}
	.st3{fill:#E27C30;}
	.st4{fill:#26B8E4;}
	.st5{fill:#F68E34;}
	.st6{fill:#F7D881;}
	.st7{fill:#CE631B;}
	.st8{fill:#C66B60;}
</style>
<g>
	<path class="st0" d="M5,57.2h240V245H5V57.2z"/>
	<path class="st1" d="M5,57.2h240C215.1,25.1,172.4,5,125,5S34.9,25.1,5,57.2z"/>
	<path class="st2" d="M45,113h160v132H45V113z"/>
	<path class="st3" d="M45,197h48v48H45V197z"/>
	<path class="st4" d="M45,97h160v32H45V97z"/>
	<g>
		<path class="st1" d="M45,109h160v8H45V109z"/>
	</g>
	<path class="st1" d="M213,97H37V81c0-4.4,3.6-8,8-8h160c4.4,0,8,3.6,8,8V97z"/>
	<g>
		<path class="st4" d="M85,37h80v8H85V37z"/>
	</g>
	<g>
		<path class="st4" d="M85,21h80v8H85V21z"/>
	</g>
	<path class="st5" d="M45,149h48v48H45V149z"/>
	<path class="st6" d="M61,149v16h16v-16"/>
	<path class="st6" d="M61,197v16h16v-16"/>
	<path class="st7" d="M93,197h48v48H93V197z"/>
	<path class="st6" d="M109,197v16h16v-16"/>
	<g>
		<path class="st6" d="M57,177h24v8H57V177z"/>
	</g>
	<g>
		<path class="st6" d="M105,225h24v8h-24V225z"/>
	</g>
	<g>
		<path class="st6" d="M57,225h24v8H57V225z"/>
	</g>
	<path class="st8" d="M245,137h-24v40h24"/>
	<g>
		<path class="st4" d="M21,137h8v8h-8V137z"/>
	</g>
	<g>
		<path class="st4" d="M21,153h8v8h-8V153z"/>
	</g>
	<g>
		<path class="st4" d="M21,169h8v8h-8V169z"/>
	</g>
	<g>
		<path class="st6" d="M233,153h12v8h-12V153z"/>
	</g>
</g>
</svg>
